<!-- Generated by IcoMoon.io -->
<svg version="1.1" xmlns="http://www.w3.org/2000/svg" width="1024" height="1024" viewBox="0 0 1024 1024">
<title></title>
<g id="icomoon-ignore">
</g>
<path fill="#000" d="M1024 426.667c0-46.933-38.4-85.333-85.333-85.333h-311.467c17.067-51.2 51.2-149.333 34.133-209.067-21.333-81.067-72.533-106.667-106.667-102.4s-64 38.4-64 76.8c0 149.333-140.8 315.733-234.667 337.067v-38.4c0-12.8-8.533-21.333-21.333-21.333h-213.333c-12.8 0-21.333 8.533-21.333 21.333v512c0 12.8 8.533 21.333 21.333 21.333h213.333c12.8 0 21.333-8.533 21.333-21.333v-59.733c42.667 8.533 76.8 12.8 102.4 21.333 55.467 12.8 93.867 21.333 174.933 21.333h277.333c72.533 0 85.333-38.4 85.333-64 0-17.067-4.267-34.133-12.8-46.933 34.133-12.8 55.467-42.667 55.467-81.067 0-17.067-4.267-34.133-12.8-46.933 34.133-12.8 55.467-42.667 55.467-81.067 0-17.067-4.267-34.133-17.067-46.933 38.4-25.6 59.733-72.533 59.733-106.667zM213.333 896h-170.667v-469.333h170.667v469.333zM938.667 490.667h-42.667c-12.8 0-21.333 8.533-21.333 21.333s8.533 21.333 21.333 21.333c21.333 0 42.667 21.333 42.667 42.667s-21.333 42.667-42.667 42.667h-42.667c-12.8 0-21.333 8.533-21.333 21.333s8.533 21.333 21.333 21.333c21.333 0 42.667 21.333 42.667 42.667s-21.333 42.667-42.667 42.667h-42.667c-12.8 0-21.333 8.533-21.333 21.333s8.533 21.333 21.333 21.333c21.333 0 42.667 21.333 42.667 42.667 0 8.533 0 21.333-42.667 21.333h-277.333c-72.533 0-110.933-8.533-166.4-17.067-29.867-4.267-64-12.8-110.933-21.333v-324.267c115.2-21.333 277.333-213.333 277.333-384 0-17.067 8.533-34.133 25.6-34.133 17.067-4.267 46.933 12.8 59.733 72.533 17.067 55.467-25.6 170.667-42.667 213.333-4.267 8.533 0 12.8 0 21.333 8.533 0 12.8 4.267 21.333 4.267h341.333c21.333 0 42.667 21.333 42.667 42.667 0 25.6-25.6 64-42.667 64z"></path>
<path fill="#000" d="M170.667 832c0 11.782-9.551 21.333-21.333 21.333s-21.333-9.551-21.333-21.333c0-11.782 9.551-21.333 21.333-21.333s21.333 9.551 21.333 21.333z"></path>
</svg>
