<!-- Generated by IcoMoon.io -->
<svg version="1.1" xmlns="http://www.w3.org/2000/svg" width="1024" height="1024" viewBox="0 0 1024 1024">
<title></title>
<g id="icomoon-ignore">
</g>
<path fill="#000" d="M918.353 300.272c0.649 9.093 0.649 18.185 0.649 27.278 0 277.324-211.078 596.864-596.864 596.864-118.853 0-229.263-34.422-322.138-94.173 16.886 1.948 33.123 2.598 50.659 2.598 98.070 0 188.347-33.123 260.438-89.627-92.225-1.948-169.512-62.349-196.14-145.482 12.989 1.948 25.979 3.247 39.618 3.247 18.835 0 37.669-2.598 55.205-7.144-96.122-19.484-168.213-103.915-168.213-205.882v-2.598c27.927 15.587 60.401 25.329 94.823 26.628-56.504-37.669-93.524-101.967-93.524-174.708 0-38.968 10.392-74.689 28.577-105.864 103.266 127.296 258.49 210.429 432.548 219.521-3.247-15.587-5.196-31.824-5.196-48.061 0-115.606 93.524-209.779 209.779-209.779 60.401 0 114.956 25.329 153.275 66.246 47.411-9.093 92.874-26.628 133.142-50.659-15.587 48.71-48.71 89.627-92.225 115.606 42.216-4.546 83.132-16.237 120.802-32.474-28.577 41.566-64.298 78.586-105.214 108.462v0z"></path>
</svg>
